<svg width="37" height="38" xmlns="http://www.w3.org/2000/svg" xmlns:xlink="http://www.w3.org/1999/xlink" xml:space="preserve" overflow="hidden"><g transform="translate(-741 -234)"><path d="M5.78125 10.7724C6.54657 10.7714 7.23878 10.3176 7.54492 9.61615L9.25 9.61615C9.67573 9.61615 10.0208 9.96125 10.0208 10.387L10.0208 15.4498C10.414 15.305 10.824 15.211 11.2411 15.1704 11.316 14.8269 11.4236 14.4913 11.5625 14.1683L11.5625 10.387C11.561 9.11044 10.5265 8.07598 9.25 8.07448L7.54492 8.07448C7.11918 7.09903 5.98332 6.65341 5.00787 7.0791 4.03242 7.50483 3.5868 8.64069 4.01253 9.61615 4.3194 10.3193 5.01408 10.7734 5.78125 10.7724Z" fill="#FFFFFF" transform="matrix(1 0 0 1.02703 741 234)"/><path d="M7.28052 22.057C7.26318 22.0212 7.2493 21.9849 7.23311 21.9495L4.23958 21.9495C3.81386 21.9495 3.46875 21.6044 3.46875 21.1786L3.46875 19.0881C4.4442 18.6624 4.88982 17.5266 4.46413 16.5511 4.0384 15.5757 2.90253 15.13 1.92708 15.5557 0.951636 15.9815 0.505994 17.1173 0.931714 18.0928 1.12612 18.5382 1.48165 18.8937 1.92708 19.0881L1.92708 21.1786C1.92857 22.4552 2.96304 23.4896 4.23958 23.4911L8.33502 23.4911C7.89738 23.0828 7.53979 22.5965 7.28052 22.057Z" fill="#FFFFFF" transform="matrix(1 0 0 1.02703 741 234)"/><path d="M16.9583 5.98398 16.9583 10.7847C17.4823 10.8038 18.0011 10.8954 18.5 11.0568L18.5 5.98398C19.4755 5.55825 19.9211 4.42239 19.4954 3.44694 19.0696 2.4715 17.9338 2.02586 16.9583 2.45158 15.9829 2.8773 15.5373 4.01315 15.963 4.9886 16.1574 5.43403 16.5129 5.78957 16.9583 5.98398Z" fill="#FFFFFF" transform="matrix(1 0 0 1.02703 741 234)"/><path d="M24.7669 13.8365C24.8655 13.9058 24.9596 13.9806 25.0521 14.0561L25.0521 12.6995C25.0521 12.2737 25.3972 11.9286 25.8229 11.9286L28.1354 11.9286C29.412 11.9271 30.4464 10.8927 30.4479 9.61615L30.4479 9.06731C31.4234 8.64158 31.869 7.50572 31.4433 6.53027 31.0176 5.55482 29.8817 5.1092 28.9062 5.53489 27.9308 5.96062 27.4852 7.09648 27.9109 8.07193 28.1053 8.51736 28.4608 8.87291 28.9062 9.06731L28.9062 9.61615C28.9062 10.0419 28.5611 10.387 28.1354 10.387L25.8229 10.387C24.5463 10.3883 23.5117 11.4229 23.5104 12.6995L23.5104 13.2067C23.9574 13.355 24.3806 13.5671 24.7669 13.8365Z" fill="#FFFFFF" transform="matrix(1 0 0 1.02703 741 234)"/><path d="M13.1042 24.8239 13.1042 25.8036C13.1042 26.2294 12.7591 26.5745 12.3333 26.5745L10.0208 26.5745C8.74422 26.5758 7.7096 27.6104 7.70833 28.887L7.70833 29.4358C6.73288 29.8615 6.28726 30.9974 6.71296 31.9729 7.13869 32.9483 8.27455 33.3939 9.25 32.9682 10.2255 32.5425 10.6711 31.4066 10.2454 30.4312 10.051 29.9857 9.69543 29.6302 9.25 29.4358L9.25 28.887C9.25 28.4612 9.5951 28.1161 10.0208 28.1161L12.3333 28.1161C13.6099 28.1146 14.6443 27.0802 14.6458 25.8036L14.6458 24.8239Z" fill="#FFFFFF" transform="matrix(1 0 0 1.02703 741 234)"/><path d="M34.3021 16.5536C33.5368 16.5546 32.8446 17.0085 32.5384 17.7099L28.7178 17.7099C29.1869 18.1349 29.5517 18.6625 29.7835 19.2516L32.5384 19.2516C32.9641 20.227 34.1 20.6726 35.0755 20.2469 36.0509 19.8212 36.4965 18.6853 36.0708 17.7099 35.764 17.0068 35.0693 16.5526 34.3021 16.5536Z" fill="#FFFFFF" transform="matrix(1 0 0 1.02703 741 234)"/><path d="M30.8333 26.9599C30.068 26.9609 29.3758 27.4147 29.0697 28.1161L27.3646 28.1161C26.9389 28.1161 26.5938 27.771 26.5938 27.3453L26.5938 24.7657C26.3736 24.8031 26.1507 24.8226 25.9274 24.8239L25.0521 24.8239 25.0521 27.3453C25.0536 28.6219 26.088 29.6563 27.3646 29.6578L29.0697 29.6578C29.4954 30.6333 30.6313 31.0789 31.6067 30.6532 32.5822 30.2275 33.0278 29.0916 32.6021 28.1161 32.2952 27.413 31.6005 26.9589 30.8333 26.9599Z" fill="#FFFFFF" transform="matrix(1 0 0 1.02703 741 234)"/><path d="M20.4271 30.5921 20.4271 24.8239 18.8854 24.8239 18.8854 30.5921C17.91 31.0178 17.4643 32.1537 17.89 33.1291 18.3158 34.1046 19.4516 34.5502 20.4271 34.1244 21.4025 33.6988 21.8482 32.5629 21.4225 31.5874 21.2281 31.142 20.8725 30.7865 20.4271 30.5921Z" fill="#FFFFFF" transform="matrix(1 0 0 1.02703 741 234)"/><path d="M25.9274 17.7854C25.8444 17.7833 25.7615 17.7874 25.6792 17.7978L25.6792 17.7854C25.677 16.5877 25.0892 15.4667 24.1051 14.7838 23.1141 14.0949 21.8528 13.9229 20.7134 14.3213 19.7567 12.509 17.6939 11.575 15.7007 12.0516 13.7113 12.5113 12.2949 14.2729 12.2732 16.3147L12.2732 16.3532C10.9131 16.1373 9.54411 16.6849 8.7081 17.7793 7.88073 18.8661 7.73188 20.3248 8.32269 21.5564 8.92197 22.794 10.1542 23.601 11.5282 23.6557L12.7188 23.6681 25.9274 23.6681C27.5518 23.6866 28.8837 22.3848 28.9024 20.7604 28.9209 19.136 27.6192 17.804 25.9947 17.7854 25.9723 17.7852 25.9498 17.7852 25.9274 17.7854Z" fill="#FFFFFF" transform="matrix(1 0 0 1.02703 741 234)"/></g></svg>