<svg width="38" height="38" xmlns="http://www.w3.org/2000/svg" xmlns:xlink="http://www.w3.org/1999/xlink" xml:space="preserve" overflow="hidden"><g transform="translate(-874 -256)"><path d="M908.754 259.325C908.2 258.771 904.638 259.404 901.669 260.196 902.737 260.829 903.846 261.7 904.915 262.769 906.023 263.877 906.894 264.985 907.527 266.094 908.319 263.046 909.348 259.879 908.754 259.325Z" fill="#FFFFFF"/><path d="M886.706 270.606 885.36 270.092C884.806 269.894 884.213 270.013 883.777 270.408L877.483 276.702C876.454 277.731 877.404 279.513 878.829 279.196L884.094 278.008C884.529 276.029 885.242 273.377 886.706 270.606Z" fill="#FFFFFF"/><path d="M897.196 280.938C894.544 282.323 892.01 283.075 889.952 283.471L888.725 289.092C888.408 290.517 890.15 291.506 891.219 290.438L897.513 284.144C897.908 283.748 898.067 283.115 897.829 282.56L897.196 280.938Z" fill="#FFFFFF"/><path d="M899.531 260.908C897.196 261.858 894.544 263.481 891.971 266.054 887.26 270.765 885.875 276.465 885.479 279.71L887.933 282.165C891.179 281.769 896.919 280.423 901.629 275.712 904.202 273.14 905.825 270.527 906.775 268.192 906.26 266.885 905.231 265.342 903.767 263.837 902.342 262.452 900.838 261.423 899.531 260.908ZM901.55 269.458C900.64 270.369 899.135 270.369 898.185 269.458 897.275 268.548 897.275 267.044 898.185 266.094 899.096 265.183 900.6 265.183 901.55 266.094 902.46 267.044 902.46 268.548 901.55 269.458Z" fill="#FFFFFF"/><path d="M885.44 282.204C884.806 281.571 884.885 280.502 883.579 281.808 882.273 283.115 880.333 286.083 880.927 286.717 881.56 287.35 884.529 285.371 885.835 284.065 887.142 282.719 886.073 282.798 885.44 282.204Z" fill="#FFFFFF"/></g></svg>