<svg width="38" height="38" xmlns="http://www.w3.org/2000/svg" xmlns:xlink="http://www.w3.org/1999/xlink" xml:space="preserve" overflow="hidden"><g transform="translate(-744 -318)"><path d="M777.812 333.806C777.812 333.596 777.776 333.386 777.749 333.18L777.749 333.18C777.721 332.951 777.681 332.729 777.638 332.507 777.64 332.484 777.64 332.46 777.638 332.436 777.594 332.218 777.543 332.005 777.487 331.791L777.487 331.791C773.462 330.338 768.447 329.479 763 329.479 757.553 329.479 752.538 330.338 748.532 331.775L748.532 331.775C748.477 331.989 748.425 332.203 748.382 332.42 748.38 332.444 748.38 332.468 748.382 332.491 748.338 332.713 748.299 332.935 748.271 333.164L748.271 333.164C748.243 333.37 748.224 333.56 748.208 333.79 748.208 333.841 748.208 333.897 748.208 333.948 748.208 334.166 748.184 334.388 748.184 334.609 748.184 334.831 748.184 335.068 748.208 335.294L748.208 335.452C748.208 335.682 748.247 335.908 748.275 336.129 752.15 334.423 757.486 333.438 763 333.438 768.514 333.438 773.85 334.423 777.741 336.145 777.769 335.923 777.792 335.698 777.808 335.468L777.808 335.31C777.808 335.084 777.832 334.855 777.832 334.625 777.832 334.395 777.832 334.182 777.808 333.964 777.82 333.913 777.816 333.857 777.812 333.806Z" fill="#FFFFFF"/><path d="M777.1 337.59C773.406 335.959 768.269 335.021 763 335.021 757.731 335.021 752.594 335.959 748.9 337.59L748.604 337.724C749.775 341.671 753.104 344.521 757.062 344.521L759.438 344.521 761.88 342.079C762.498 341.46 763.5 341.459 764.119 342.077 764.119 342.078 764.12 342.078 764.12 342.079L766.562 344.521 768.938 344.521C772.896 344.521 776.225 341.671 777.396 337.724Z" fill="#FFFFFF"/><path d="M746.276 339.688C746.905 340.669 747.713 341.398 748.679 341.615 748.453 341.148 747.661 339.577 747.274 338.67 746.887 338.952 746.55 339.296 746.276 339.688Z" fill="#FFFFFF"/><path d="M745.504 338.136C745.898 337.73 746.335 337.368 746.806 337.055 746.755 336.802 746.708 336.541 746.684 336.323 746.66 336.105 746.632 335.864 746.609 335.591L746.609 335.409C746.609 335.116 746.585 334.866 746.585 334.617 746.585 334.368 746.585 334.138 746.609 333.861L746.609 333.683C746.609 333.418 746.652 333.188 746.676 332.982L746.676 332.947C746.7 332.757 746.735 332.551 746.771 332.365 746.466 332.484 746.169 332.61 745.876 332.737 745.208 333.038 744.782 333.706 744.792 334.439L744.792 334.439C744.813 335.703 745.054 336.954 745.504 338.136Z" fill="#FFFFFF"/><path d="M779.724 339.688C779.095 340.669 778.287 341.398 777.321 341.615 777.547 341.148 778.339 339.577 778.726 338.67 779.113 338.952 779.45 339.296 779.724 339.688Z" fill="#FFFFFF"/><path d="M780.496 338.136C780.102 337.73 779.665 337.368 779.194 337.055 779.245 336.802 779.292 336.541 779.316 336.323 779.34 336.105 779.368 335.864 779.391 335.591L779.391 335.409C779.391 335.116 779.415 334.866 779.415 334.617 779.415 334.368 779.415 334.138 779.391 333.861L779.391 333.683C779.391 333.418 779.348 333.188 779.324 332.982L779.324 332.947C779.3 332.757 779.265 332.551 779.229 332.365 779.534 332.484 779.831 332.61 780.124 332.737 780.792 333.038 781.218 333.706 781.208 334.439L781.208 334.439C781.187 335.703 780.946 336.954 780.496 338.136Z" fill="#FFFFFF"/></g></svg>