<svg width="71" height="40" xmlns="http://www.w3.org/2000/svg" xmlns:xlink="http://www.w3.org/1999/xlink" xml:space="preserve" overflow="hidden"><defs><clipPath id="clip0"><rect x="468" y="303" width="71" height="40"/></clipPath></defs><g clip-path="url(#clip0)" transform="translate(-468 -303)"><path d="M92.9216 29.5381C90.9216 28.3073 89.3832 26.7688 88.1525 24.7689 86.9217 22.7689 86.4602 20.4612 86.4602 17.9997 86.4602 15.5383 87.0756 13.2306 88.1525 11.2306 89.3832 9.23063 90.9216 7.53833 92.9216 6.46143 94.9216 5.23068 97.0754 4.76916 99.537 4.76916 101.384 4.76916 103.23 5.07683 104.768 5.69221 106.46 6.30758 107.69 7.23066 108.767 8.4614L106.613 10.6153C105.845 9.69214 104.768 8.92292 103.537 8.30755 102.307 7.84602 100.922 7.53833 99.537 7.53833 97.6908 7.53833 96.1524 7.99987 94.614 8.76909 93.0755 9.69215 91.8447 10.9229 90.9217 12.4613 89.9986 13.9998 89.537 15.846 89.537 17.8459 89.537 19.8459 89.9986 21.692 90.9217 23.2305 91.8447 24.7689 93.0755 25.9996 94.614 26.9227 96.1524 27.8457 97.8446 28.1534 99.537 28.1534 101.23 28.1534 102.614 27.8457 103.845 27.3842 104.922 26.9226 105.999 26.1534 106.767 25.2303 107.382 24.6151 107.844 23.692 108.306 22.7689 108.613 21.8458 108.921 20.7689 108.921 19.692L99.537 19.692 99.537 16.9229 111.69 16.9229C111.844 17.5382 111.844 18.1536 111.844 18.7689 111.844 20.3074 111.536 21.8459 111.075 23.3843 110.613 24.9227 109.844 26.1535 108.767 27.2304 106.307 29.6919 103.23 31.0765 99.3831 31.0765 97.0754 31.2304 94.9216 30.7688 92.9216 29.5381Z" fill="#656C73" transform="matrix(1 0 0 1.00001 468 303)"/><path d="M118.613 29.9996C117.229 29.2304 116.152 27.9996 115.383 26.615 114.613 25.2304 114.306 23.5382 114.306 21.8459 114.306 20.1536 114.613 18.4612 115.383 17.0767 116.152 15.6921 117.229 14.4613 118.613 13.6921 119.998 12.9229 121.536 12.4613 123.229 12.4613 124.921 12.4613 126.459 12.9229 127.844 13.6921 129.229 14.4613 130.306 15.6921 131.075 17.0767 131.844 18.4612 132.152 20.1536 132.152 21.8459 132.152 23.5382 131.844 25.2304 131.075 26.615 130.306 27.9996 129.229 29.2304 127.844 29.9996 126.459 30.7688 124.921 31.2304 123.229 31.2304 121.536 31.2304 119.844 30.9227 118.613 29.9996ZM126.152 27.6919C127.075 27.0765 127.844 26.3073 128.306 25.3842 128.921 24.3074 129.075 23.2305 129.075 21.8459 129.075 20.4613 128.767 19.3843 128.306 18.3074 127.69 17.2306 127.075 16.4613 126.152 15.9998 125.229 15.3844 124.306 15.2306 123.229 15.2306 122.152 15.2306 121.229 15.5383 120.306 15.9998 119.383 16.6152 118.613 17.3844 118.152 18.3074 117.536 19.3843 117.383 20.4613 117.383 21.8459 117.383 23.2305 117.69 24.3074 118.152 25.3842 118.767 26.4611 119.383 27.2304 120.306 27.6919 121.229 28.3073 122.152 28.4611 123.229 28.4611 124.306 28.615 125.229 28.3073 126.152 27.6919Z" fill="#656C73" transform="matrix(1 0 0 1.00001 468 303)"/><path d="M138.613 29.9996C137.229 29.2304 136.152 27.9996 135.383 26.615 134.613 25.2304 134.306 23.5382 134.306 21.8459 134.306 20.1536 134.613 18.4612 135.383 17.0767 136.152 15.6921 137.229 14.4613 138.613 13.6921 139.998 12.9229 141.536 12.4613 143.229 12.4613 144.921 12.4613 146.459 12.9229 147.844 13.6921 149.229 14.4613 150.306 15.6921 151.075 17.0767 151.844 18.4612 152.152 20.1536 152.152 21.8459 152.152 23.5382 151.844 25.2304 151.075 26.615 150.306 27.9996 149.229 29.2304 147.844 29.9996 146.459 30.7688 144.921 31.2304 143.229 31.2304 141.536 31.2304 139.998 30.9227 138.613 29.9996ZM146.306 27.6919C147.229 27.0765 147.998 26.3073 148.459 25.3842 149.075 24.3074 149.229 23.2305 149.229 21.8459 149.229 20.4613 148.921 19.3843 148.459 18.3074 147.844 17.2306 147.229 16.4613 146.306 15.9998 145.383 15.3844 144.459 15.2306 143.383 15.2306 142.306 15.2306 141.383 15.5383 140.459 15.9998 139.536 16.6152 138.767 17.3844 138.306 18.3074 137.69 19.3843 137.536 20.4613 137.536 21.8459 137.536 23.2305 137.844 24.3074 138.306 25.3842 138.921 26.4611 139.536 27.2304 140.459 27.6919 141.383 28.3073 142.306 28.4611 143.383 28.4611 144.306 28.615 145.383 28.3073 146.306 27.6919Z" fill="#656C73" transform="matrix(1 0 0 1.00001 468 303)"/><path d="M157.844 37.3841C156.459 36.3072 155.536 35.2303 155.075 33.8456L157.844 32.6149C158.152 33.6918 158.767 34.461 159.69 35.0764 160.613 35.6918 161.69 35.9995 162.921 35.9995 164.767 35.9995 166.152 35.3841 167.229 34.3072 168.306 33.2302 168.767 31.6919 168.767 29.6919L168.767 27.8457 168.613 27.8457C167.998 28.7688 167.229 29.5381 166.152 30.1534 165.075 30.7688 163.844 31.0765 162.613 31.0765 161.075 31.0765 159.69 30.615 158.459 29.8457 157.229 29.0765 156.152 27.9996 155.383 26.4611 154.613 25.0765 154.306 23.3843 154.306 21.692 154.306 19.8458 154.613 18.3074 155.383 16.9229 156.152 15.5382 157.229 14.3075 158.459 13.5382 159.69 12.769 161.075 12.3075 162.613 12.3075 163.998 12.3075 165.229 12.6152 166.152 13.2306 167.229 13.8459 167.998 14.6152 168.613 15.5383L168.767 15.5383 168.767 12.9229 171.69 12.9229 171.69 29.8457C171.69 31.8457 171.383 33.3841 170.613 34.7687 169.844 36.1533 168.767 37.0764 167.536 37.8456 166.152 38.461 164.767 38.7687 163.075 38.7687 160.921 38.9226 159.229 38.461 157.844 37.3841ZM165.998 27.6919C166.921 27.2304 167.536 26.4611 168.152 25.3842 168.613 24.4612 168.921 23.2305 168.921 21.8459 168.921 20.4612 168.613 19.3843 168.152 18.3074 167.69 17.2305 166.921 16.4613 165.998 15.9998 165.075 15.5382 164.152 15.2305 163.075 15.2305 161.998 15.2305 161.075 15.5382 160.152 15.9998 159.229 16.4613 158.613 17.2305 157.998 18.3074 157.536 19.2304 157.229 20.4612 157.229 21.8459 157.229 23.2305 157.536 24.3074 157.998 25.3842 158.46 26.3073 159.229 27.0765 160.152 27.6919 161.075 28.1534 161.998 28.4611 163.075 28.4611 164.152 28.615 165.075 28.3073 165.998 27.6919Z" fill="#656C73" transform="matrix(1 0 0 1.00001 468 303)"/><path d="M178.459 5.38453 175.383 5.38453 175.383 30.7688 178.459 30.7688 178.459 5.38453Z" fill="#656C73" transform="matrix(1 0 0 1.00001 468 303)"/><path d="M185.381 29.9996C183.997 29.2304 183.074 28.1534 182.304 26.615 181.535 25.2304 181.227 23.5382 181.227 21.8459 181.227 20.1536 181.535 18.6151 182.304 17.0767 183.074 15.6921 183.997 14.4613 185.381 13.6921 186.766 12.9229 188.151 12.4613 189.843 12.4613 191.535 12.4613 193.074 12.769 194.304 13.5382 195.535 14.3075 196.612 15.3844 197.228 16.769 197.843 18.1535 198.304 19.692 198.304 21.5382 198.304 21.8459 198.304 22.1535 198.304 22.3074L184.304 22.3074C184.304 23.692 184.612 24.769 185.227 25.6919 185.843 26.615 186.612 27.2304 187.381 27.6919 188.304 28.1534 189.227 28.3073 190.151 28.3073 192.304 28.3073 194.151 27.2304 195.227 25.0765L197.843 26.3073C197.074 27.6919 195.997 28.9227 194.766 29.6919 193.381 30.615 191.843 30.9227 189.997 30.9227 188.304 31.2304 186.766 30.9227 185.381 29.9996ZM195.074 19.9997C195.074 19.2305 194.766 18.6151 194.458 17.8459 194.151 17.0767 193.535 16.4613 192.766 15.9998 191.997 15.5383 190.92 15.2306 189.689 15.2306 188.304 15.2306 187.227 15.6921 186.304 16.4614 185.381 17.3844 184.766 18.4612 184.458 19.8458L195.074 19.8458 195.074 19.9997Z" fill="#656C73" transform="matrix(1 0 0 1.00001 468 303)"/><path d="M209.689 5.38453 217.382 5.38453C219.997 5.38453 222.305 5.99992 224.151 6.92297 226.151 7.99989 227.536 9.53832 228.612 11.3844 229.689 13.2306 230.151 15.5383 230.151 17.9997 230.151 20.4613 229.689 22.6151 228.612 24.6151 227.536 26.4611 226.151 27.9996 224.151 29.0765 222.151 30.1534 219.997 30.615 217.382 30.615L209.689 30.615 209.689 5.38453ZM217.382 27.8458C220.305 27.8458 222.766 26.9227 224.459 25.2304 226.151 23.5381 227.074 21.0766 227.074 17.9997 227.074 14.9229 226.151 12.4613 224.459 10.769 222.766 9.07679 220.305 8.15374 217.382 8.15374L212.766 8.15374 212.766 27.8458 217.382 27.8458 217.382 27.8458Z" fill="#656C73" transform="matrix(1 0 0 1.00001 468 303)"/><path d="M237.074 29.9996C235.689 29.2304 234.766 28.1534 233.997 26.615 233.228 25.2304 232.92 23.5382 232.92 21.8459 232.92 20.1536 233.228 18.6151 233.997 17.0767 234.766 15.6921 235.689 14.4613 237.074 13.6921 238.458 12.9229 239.843 12.4613 241.535 12.4613 243.228 12.4613 244.766 12.769 245.997 13.5382 247.228 14.3075 248.304 15.3844 248.92 16.769 249.534 18.1535 249.996 19.692 249.996 21.5382 249.996 21.8459 249.996 22.1535 249.996 22.3074L235.997 22.3074C235.997 23.692 236.304 24.769 236.92 25.6919 237.535 26.615 238.304 27.2304 239.074 27.6919 239.997 28.1534 240.92 28.3073 241.843 28.3073 243.997 28.3073 245.843 27.2304 246.92 25.0765L249.534 26.3073C248.766 27.6919 247.689 28.9227 246.458 29.6919 245.074 30.615 243.535 30.9227 241.689 30.9227 239.997 31.2304 238.458 30.9227 237.074 29.9996ZM246.766 19.9997C246.766 19.2305 246.458 18.6151 246.151 17.8459 245.843 17.0767 245.228 16.4613 244.458 15.9998 243.689 15.5383 242.612 15.2306 241.381 15.2306 239.997 15.2306 238.92 15.6921 237.997 16.4614 237.074 17.3844 236.458 18.4612 236.151 19.8458L246.766 19.8458 246.766 19.9997Z" fill="#656C73" transform="matrix(1 0 0 1.00001 468 303)"/><path d="M250.611 13.0767 253.842 13.0767 259.227 27.2304 259.38 27.2304 264.765 13.0767 267.996 13.0767 260.765 30.7688 257.688 30.7688 250.611 13.0767Z" fill="#656C73" transform="matrix(1 0 0 1.00001 468 303)"/><path d="M273.535 29.9996C272.15 29.2304 271.227 28.1534 270.458 26.615 269.688 25.2304 269.381 23.5382 269.381 21.8459 269.381 20.1536 269.688 18.6151 270.458 17.0767 271.227 15.6921 272.15 14.4613 273.535 13.6921 274.919 12.9229 276.304 12.4613 277.996 12.4613 279.688 12.4613 281.227 12.769 282.458 13.5382 283.688 14.3075 284.765 15.3844 285.381 16.769 285.996 18.1535 286.458 19.692 286.458 21.5382 286.458 21.8459 286.458 22.1535 286.458 22.3074L272.304 22.3074C272.304 23.692 272.612 24.769 273.227 25.6919 273.842 26.615 274.612 27.2304 275.381 27.6919 276.304 28.1534 277.227 28.3073 278.15 28.3073 280.304 28.3073 282.15 27.2304 283.227 25.0765L285.842 26.3073C285.073 27.6919 283.996 28.9227 282.765 29.6919 281.381 30.615 279.842 30.9227 277.996 30.9227 276.304 31.2304 274.765 30.9227 273.535 29.9996ZM283.073 19.9997C283.073 19.2305 282.765 18.6151 282.458 17.8459 282.15 17.0767 281.535 16.4613 280.765 15.9998 279.996 15.5383 278.919 15.2306 277.688 15.2306 276.304 15.2306 275.227 15.6921 274.304 16.4614 273.381 17.3844 272.765 18.4612 272.458 19.8458L283.073 19.8458 283.073 19.9997Z" fill="#656C73" transform="matrix(1 0 0 1.00001 468 303)"/><path d="M292.458 5.38453 289.381 5.38453 289.381 30.7688 292.458 30.7688 292.458 5.38453Z" fill="#656C73" transform="matrix(1 0 0 1.00001 468 303)"/><path d="M299.534 29.9996C298.15 29.2304 297.073 27.9996 296.303 26.615 295.534 25.2304 295.226 23.5382 295.226 21.8459 295.226 20.1536 295.534 18.4612 296.303 17.0767 297.073 15.6921 298.15 14.4613 299.534 13.6921 300.919 12.9229 302.457 12.4613 304.15 12.4613 305.842 12.4613 307.38 12.9229 308.765 13.6921 310.15 14.4613 311.226 15.6921 311.996 17.0767 312.765 18.4612 313.073 20.1536 313.073 21.8459 313.073 23.5382 312.765 25.2304 311.996 26.615 311.226 27.9996 310.15 29.2304 308.765 29.9996 307.38 30.7688 305.842 31.2304 304.15 31.2304 302.457 31.2304 300.919 30.9227 299.534 29.9996ZM307.226 27.6919C308.15 27.0765 308.919 26.3073 309.38 25.3842 309.996 24.3074 310.15 23.2305 310.15 21.8459 310.15 20.4613 309.842 19.3843 309.38 18.3074 308.765 17.2306 308.15 16.4613 307.226 15.9998 306.303 15.3844 305.38 15.2306 304.303 15.2306 303.226 15.2306 302.303 15.5383 301.38 15.9998 300.457 16.6152 299.688 17.3844 299.226 18.3074 298.611 19.3843 298.457 20.4613 298.457 21.8459 298.457 23.2305 298.765 24.3074 299.226 25.3842 299.842 26.4611 300.457 27.2304 301.38 27.6919 302.303 28.3073 303.226 28.4611 304.303 28.4611 305.226 28.615 306.303 28.3073 307.226 27.6919Z" fill="#656C73" transform="matrix(1 0 0 1.00001 468 303)"/><path d="M315.996 13.0767 318.919 13.0767 318.919 15.6921 319.073 15.6921C319.688 14.769 320.457 13.9998 321.533 13.3844 322.61 12.769 323.841 12.4613 325.226 12.4613 326.764 12.4613 328.149 12.9229 329.38 13.6921 330.61 14.4613 331.687 15.6921 332.456 17.0767 333.226 18.4612 333.533 20.1536 333.533 21.8459 333.533 23.692 333.226 25.2303 332.456 26.615 331.687 27.9996 330.61 29.0765 329.38 29.9996 328.149 30.7688 326.764 31.2303 325.226 31.2303 323.841 31.2303 322.61 30.9227 321.533 30.3073 320.457 29.6919 319.688 28.9227 319.073 27.9996L318.919 27.9996 319.073 30.4611 319.073 38.3072 315.996 38.3072 315.996 13.0767ZM327.533 27.6919C328.457 27.0765 329.072 26.3073 329.687 25.3842 330.149 24.3074 330.456 23.2305 330.456 21.8459 330.456 20.4613 330.149 19.3843 329.687 18.3074 329.226 17.2306 328.457 16.4613 327.533 15.9998 326.61 15.3844 325.687 15.2306 324.61 15.2306 323.533 15.2306 322.61 15.5383 321.687 15.9998 320.764 16.4613 320.149 17.2306 319.534 18.3074 319.073 19.3843 318.765 20.4613 318.765 21.8459 318.765 23.2305 319.073 24.3074 319.534 25.3842 319.995 26.4611 320.764 27.2304 321.687 27.6919 322.61 28.1534 323.533 28.4611 324.61 28.4611 325.687 28.615 326.61 28.3073 327.533 27.6919Z" fill="#656C73" transform="matrix(1 0 0 1.00001 468 303)"/><path d="M340.456 29.9996C339.072 29.2304 338.149 28.1534 337.38 26.615 336.61 25.2304 336.303 23.5382 336.303 21.8459 336.303 20.1536 336.61 18.6151 337.38 17.0767 338.149 15.6921 339.072 14.4613 340.456 13.6921 341.841 12.9229 343.226 12.4613 344.918 12.4613 346.61 12.4613 348.149 12.769 349.38 13.5382 350.61 14.3075 351.687 15.3844 352.303 16.769 352.918 18.1535 353.38 19.692 353.38 21.5382 353.38 21.8459 353.38 22.1535 353.38 22.3074L339.38 22.3074C339.38 23.692 339.687 24.769 340.303 25.6919 340.918 26.615 341.687 27.2304 342.456 27.6919 343.38 28.1534 344.303 28.3073 345.226 28.3073 347.38 28.3073 349.226 27.2304 350.303 25.0765L352.918 26.3073C352.149 27.6919 351.072 28.9227 349.841 29.6919 348.457 30.615 346.918 30.9227 345.072 30.9227 343.38 31.2304 341.841 30.9227 340.456 29.9996ZM350.149 19.9997C350.149 19.2305 349.841 18.6151 349.533 17.8459 349.226 17.0767 348.61 16.4613 347.841 15.9998 347.072 15.5383 345.995 15.2306 344.764 15.2306 343.38 15.2306 342.303 15.6921 341.38 16.4614 340.457 17.3844 339.841 18.4612 339.533 19.8458L350.149 19.8458 350.149 19.9997Z" fill="#656C73" transform="matrix(1 0 0 1.00001 468 303)"/><path d="M356.303 13.0767 359.226 13.0767 359.226 15.9998 359.38 15.9998C359.687 15.0767 360.457 14.1536 361.38 13.5383 362.457 12.9229 363.38 12.6152 364.457 12.6152 365.226 12.6152 365.841 12.769 366.457 12.9229L366.457 16.1537C365.841 15.846 364.918 15.6921 363.995 15.6921 363.226 15.6921 362.456 15.9998 361.687 16.4614 360.918 16.9229 360.457 17.5383 359.995 18.4613 359.533 19.2305 359.38 20.1536 359.38 21.0767L359.38 30.9227 356.303 30.9227 356.303 13.0767 356.303 13.0767Z" fill="#656C73" transform="matrix(1 0 0 1.00001 468 303)"/><path d="M381.995 29.5381C379.995 28.3073 378.457 26.7688 377.226 24.7689 375.995 22.7689 375.534 20.4612 375.534 17.9997 375.534 15.5383 376.149 13.2306 377.226 11.2306 378.457 9.23063 379.995 7.53833 381.995 6.46143 383.995 5.23068 386.149 4.76916 388.611 4.76916 390.457 4.76916 392.302 5.07683 393.84 5.69221 395.533 6.30758 396.763 7.23066 397.84 8.4614L395.686 10.6153C394.917 9.69214 393.84 8.92292 392.61 8.30755 391.38 7.84602 389.995 7.53833 388.611 7.53833 386.764 7.53833 385.226 7.99987 383.688 8.76909 382.149 9.69215 380.918 10.9229 379.995 12.4613 379.072 13.9998 378.611 15.846 378.611 17.8459 378.611 19.8459 379.072 21.692 379.995 23.2305 380.918 24.7689 382.149 25.9996 383.688 26.9227 385.226 27.8457 386.918 28.1534 388.611 28.1534 390.303 28.1534 391.687 27.8457 392.917 27.3842 393.994 26.9226 395.071 26.1534 395.84 25.2303 396.456 24.6151 396.917 23.692 397.379 22.7689 397.686 21.8458 397.994 20.7689 397.994 19.692L388.611 19.692 388.611 16.9229 400.763 16.9229C400.917 17.5382 400.917 18.1536 400.917 18.7689 400.917 20.3074 400.61 21.8459 400.148 23.3843 399.686 24.9227 398.917 26.1535 397.84 27.2304 395.379 29.6919 392.302 31.0765 388.457 31.0765 386.303 31.2304 383.995 30.7688 381.995 29.5381Z" fill="#656C73" transform="matrix(1 0 0 1.00001 468 303)"/><path d="M404.455 13.0767 407.378 13.0767 407.378 15.9998 407.532 15.9998C407.84 15.0767 408.609 14.1536 409.532 13.5383 410.609 12.9229 411.532 12.6152 412.609 12.6152 413.378 12.6152 413.994 12.769 414.609 12.9229L414.609 16.1537C413.994 15.846 413.071 15.6921 412.148 15.6921 411.379 15.6921 410.609 15.9998 409.84 16.4614 409.071 16.9229 408.609 17.5383 408.148 18.4613 407.686 19.2305 407.532 20.1536 407.532 21.0767L407.532 30.9227 404.455 30.9227 404.455 13.0767 404.455 13.0767Z" fill="#656C73" transform="matrix(1 0 0 1.00001 468 303)"/><path d="M419.378 29.9996C417.994 29.2304 416.917 27.9996 416.148 26.615 415.378 25.2304 415.071 23.5382 415.071 21.8459 415.071 20.1536 415.378 18.4612 416.148 17.0767 416.917 15.6921 417.994 14.4613 419.378 13.6921 420.763 12.9229 422.301 12.4613 423.994 12.4613 425.686 12.4613 427.224 12.9229 428.609 13.6921 429.994 14.4613 431.071 15.6921 431.84 17.0767 432.609 18.4612 432.917 20.1536 432.917 21.8459 432.917 23.5382 432.609 25.2304 431.84 26.615 431.071 27.9996 429.994 29.2304 428.609 29.9996 427.224 30.7688 425.686 31.2304 423.994 31.2304 422.301 31.2304 420.763 30.9227 419.378 29.9996ZM427.071 27.6919C427.994 27.0765 428.763 26.3073 429.225 25.3842 429.84 24.3074 429.994 23.2305 429.994 21.8459 429.994 20.4613 429.686 19.3843 429.225 18.3074 428.609 17.2306 427.994 16.4613 427.071 15.9998 426.148 15.3844 425.225 15.2306 424.148 15.2306 423.071 15.2306 422.148 15.5383 421.224 15.9998 420.301 16.6152 419.532 17.3844 419.071 18.3074 418.455 19.3843 418.301 20.4613 418.301 21.8459 418.301 23.2305 418.609 24.3074 419.071 25.3842 419.686 26.4611 420.301 27.2304 421.224 27.6919 422.148 28.3073 423.071 28.4611 424.148 28.4611 425.071 28.615 426.148 28.3073 427.071 27.6919Z" fill="#656C73" transform="matrix(1 0 0 1.00001 468 303)"/><path d="M437.533 29.3842C436.456 28.1535 435.84 26.4612 435.84 24.1536L435.84 13.0767 438.917 13.0767 438.917 23.692C438.917 26.9227 440.302 28.615 443.225 28.615 444.148 28.615 445.071 28.3073 445.84 27.8458 446.609 27.2304 447.225 26.615 447.686 25.6919 448.148 24.769 448.302 23.8459 448.302 22.9228L448.302 13.2306 451.225 13.2306 451.225 30.7688 448.456 30.7688 448.456 28.1534 448.302 28.1534C447.84 29.0765 447.071 29.8457 445.994 30.4611 444.917 31.0765 443.84 31.3842 442.609 31.3842 440.302 31.2304 438.609 30.615 437.533 29.3842Z" fill="#656C73" transform="matrix(1 0 0 1.00001 468 303)"/><path d="M455.071 13.0767 457.994 13.0767 457.994 15.6921 458.148 15.6921C458.763 14.769 459.532 13.9998 460.609 13.3844 461.685 12.769 462.917 12.4613 464.3 12.4613 465.839 12.4613 467.224 12.9229 468.454 13.6921 469.685 14.4613 470.762 15.6921 471.531 17.0767 472.3 18.4612 472.608 20.1536 472.608 21.8459 472.608 23.692 472.3 25.2303 471.531 26.615 470.762 27.9996 469.685 29.0765 468.454 29.9996 467.224 30.7688 465.839 31.2303 464.3 31.2303 462.917 31.2303 461.685 30.9227 460.609 30.3073 459.532 29.6919 458.763 28.9227 458.148 27.9996L457.994 27.9996 458.148 30.4611 458.148 38.3072 455.071 38.3072 455.071 13.0767ZM466.608 27.6919C467.531 27.0765 468.147 26.3073 468.762 25.3842 469.224 24.3074 469.531 23.2305 469.531 21.8459 469.531 20.4613 469.224 19.3843 468.762 18.3074 468.3 17.2306 467.531 16.4613 466.608 15.9998 465.685 15.3844 464.762 15.2306 463.685 15.2306 462.608 15.2306 461.685 15.5383 460.763 15.9998 459.84 16.4613 459.224 17.2306 458.609 18.3074 458.148 19.3843 457.84 20.4613 457.84 21.8459 457.84 23.2305 458.148 24.3074 458.609 25.3842 459.071 26.4611 459.84 27.2304 460.763 27.6919 461.685 28.1534 462.608 28.4611 463.685 28.4611 464.762 28.615 465.839 28.3073 466.608 27.6919Z" fill="#656C73" transform="matrix(1 0 0 1.00001 468 303)"/><path d="M476.916 29.8457C475.685 28.9227 474.762 27.6919 474.147 26.3073L476.762 25.0765C477.224 26.1534 477.839 27.0765 478.762 27.6919 479.685 28.3073 480.608 28.615 481.531 28.615 482.608 28.615 483.531 28.3073 484.301 27.8457 485.07 27.3842 485.378 26.7688 485.378 25.9996 485.378 25.3842 485.07 24.7689 484.608 24.3074 483.993 23.8458 483.07 23.5381 481.685 23.0766L479.224 22.4612C477.839 22.1535 476.762 21.5381 475.839 20.7689 474.916 19.9997 474.455 18.9228 474.455 17.5382 474.455 16.4613 474.762 15.5383 475.378 14.769 475.993 13.9998 476.762 13.3844 477.839 12.9229 478.916 12.4613 479.993 12.3075 481.224 12.3075 482.762 12.3075 484.147 12.6152 485.378 13.3844 486.608 14.1537 487.531 15.0767 487.993 16.3075L485.378 17.3844C485.07 16.4613 484.455 15.8459 483.685 15.5383 482.916 15.0767 481.993 14.9229 481.07 14.9229 480.147 14.9229 479.378 15.0767 478.608 15.5383 477.839 15.9998 477.531 16.6152 477.531 17.2306 477.531 17.8459 477.839 18.3074 478.301 18.6151 478.762 18.9228 479.531 19.2305 480.608 19.5382L483.224 20.1535C484.916 20.6151 486.301 21.2304 487.07 22.1535 487.993 23.0766 488.301 24.1535 488.301 25.3842 488.301 26.4611 487.993 27.3842 487.378 28.1534 486.762 28.9226 485.993 29.6919 484.916 30.1534 483.839 30.615 482.608 30.9227 481.378 30.9227 479.839 31.2304 478.147 30.7688 476.916 29.8457Z" fill="#656C73" transform="matrix(1 0 0 1.00001 468 303)"/><path d="M17.3845 18.4613 28.769 11.846C31.3844 10.3076 32.3073 6.92299 30.769 4.1538 29.2305 1.53846 25.8459 0.615385 23.0768 2.15382L3.38472 13.5383 17.3845 18.4613Z" fill="#EA4335" transform="matrix(1 0 0 1.00001 468 303)"/><path d="M25.8459 35.2303C27.8459 35.2303 29.6921 34.1534 30.6151 32.461 32.1535 29.8458 31.2305 26.3073 28.6151 24.7689L8.92308 13.3844C6.30774 11.846 2.76933 12.769 1.23089 15.3844-0.307552 17.9997 0.61554 21.5382 3.23088 23.0766L22.9229 34.461C23.9998 35.0764 24.9228 35.2303 25.8459 35.2303Z" fill="#4285F4" transform="matrix(1 0 0 1.00001 468 303)"/><path d="M45.3838 35.2303C46.3068 35.2303 47.2299 34.9226 48.1529 34.461L67.845 23.0766 54.1529 17.9997 42.6146 24.6151C39.9992 26.1535 39.0761 29.5381 40.6146 32.3072 41.6915 34.3072 43.5377 35.2303 45.3838 35.2303Z" fill="#FBBC04" transform="matrix(1 0 0 1.00001 468 303)"/><path d="M65.0759 23.9997C67.0759 23.9997 68.9219 22.9228 69.845 21.2305 71.3835 18.6151 70.4604 15.0767 67.845 13.5383L48.153 2.15383C45.5377 0.615384 41.9992 1.53846 40.4608 4.1538 38.9224 6.76914 39.8454 10.3076 42.4608 11.846L62.1528 23.2305C63.0759 23.692 64.1528 23.9997 65.0759 23.9997Z" fill="#0F9D58" transform="matrix(1 0 0 1.00001 468 303)"/></g></svg>