<svg width="96" height="96" xmlns="http://www.w3.org/2000/svg" xmlns:xlink="http://www.w3.org/1999/xlink" xml:space="preserve" overflow="hidden"><g transform="translate(-305 -157)"><path d="M352 169.5C348.3 167.7 344.5 166.5 340.7 166 351.7 176.9 355 194 347.7 208.7 340.5 223.4 324.7 231 309.5 228.9 312.2 231.6 315.5 234 319.1 235.8 337.4 244.9 359.6 237.4 368.6 219.1 377.6 200.8 370.3 178.7 352 169.5Z" fill="#FFFF00"/><path d="M391.9 211.5C391.7 211.2 391.7 210.8 391.9 210.5L393.8 207.7C394 207.3 394 206.9 393.8 206.6 393.6 206.3 393.1 206.1 392.8 206.2L389.7 207C389.3 207.1 388.9 206.9 388.7 206.6L386.8 203.8C386.5 203.4 386.1 203.3 385.7 203.4 385.3 203.5 385 203.9 385 204.3L384.8 207.7C384.8 208.1 384.5 208.4 384.1 208.6L381 209.3C380.6 209.4 380.3 209.7 380.3 210.2 380.3 210.6 380.5 211 380.9 211.1L382.2 211.8 383.9 212.7C384 212.8 384.2 212.9 384.3 213.1 384.4 213.3 384.4 213.4 384.4 213.6L384.4 217C384.4 217.4 384.6 217.8 385 217.9 385.4 218 385.8 217.9 386.1 217.6L388.3 214.9C388.6 214.6 389 214.5 389.4 214.6L392.7 215.8C393.1 215.9 393.5 215.8 393.8 215.5 394.1 215.2 394.1 214.7 393.9 214.4L391.9 211.5Z" fill="#FFFF00"/><path d="M382.4 186.6 385.1 181.7C385.4 181.1 386 180.8 386.7 180.9L392.2 181.8C392.9 181.9 393.5 181.6 393.8 181 394.1 180.4 394 179.6 393.6 179.2L389.8 175.1C389.4 174.7 389.3 174 389.5 173.4L391.6 168.3C391.8 167.7 391.7 167 391.3 166.6 390.9 166.2 390.1 166 389.6 166.3L384.9 168.6C384.3 168.9 383.6 168.7 383.2 168.3L379.4 164.5C378.9 164 378.1 163.9 377.5 164.1 376.9 164.4 376.6 165.1 376.6 165.7L377.3 171C377.4 171.7 377.1 172.3 376.5 172.6L371.8 174.9C371.2 175.2 370.9 175.8 371 176.5 371.1 177.1 371.6 177.7 372.2 177.8L374.5 178.5 377.5 179.4C377.8 179.5 378 179.7 378.3 179.9 378.5 180.1 378.6 180.4 378.7 180.7L379.6 186.2C379.7 186.9 380.2 187.4 380.9 187.5 381.6 187.6 382.1 187.2 382.4 186.6Z" fill="#FFFF00"/></g></svg>