<svg width="96" height="96" xmlns="http://www.w3.org/2000/svg" xmlns:xlink="http://www.w3.org/1999/xlink" xml:space="preserve" overflow="hidden"><g transform="translate(-222 -143)"><path d="M226 188 244 188 244 194 226 194Z" fill="#FFFF00"/><path d="M296 188 314 188 314 194 296 194Z" fill="#FFFF00"/><path d="M292 191C292 203.15 282.15 213 270 213 257.85 213 248 203.15 248 191 248 178.85 257.85 169 270 169 282.15 169 292 178.85 292 191Z" fill="#FFFF00"/><path d="M267 217 273 217 273 235 267 235Z" fill="#FFFF00"/><path d="M267 147 273 147 273 165 267 165Z" fill="#FFFF00"/><path d="M253.687 211.454 240.96 224.181 236.717 219.939 249.445 207.211Z" fill="#FFFF00"/><path d="M303.283 162.059 290.555 174.786 286.312 170.544 299.04 157.816Z" fill="#FFFF00"/><path d="M253.785 170.445 249.542 174.688 236.815 161.96 241.057 157.718Z" fill="#FFFF00"/><path d="M303.184 220.038 298.941 224.281 286.213 211.553 290.456 207.31Z" fill="#FFFF00"/></g></svg>